<svg xmlns="http://www.w3.org/2000/svg" width="24" height="24" viewBox="0 0 24 24"><g class="nc-icon-wrapper" stroke-linecap="square" stroke-linejoin="miter" stroke-width="2" fill="#666666" stroke="#666666"><polyline data-cap="butt" data-color="color-2" fill="none" stroke-miterlimit="10" points="13,1 13,9 10,7 7,9 7,1 " stroke-linecap="butt"></polyline> <path fill="none" stroke="#666666" stroke-miterlimit="10" d="M5,1C3.895,1,3,1.895,3,3 v18c0-1.105,0.895-2,2-2h14c1.105,0,2-0.895,2-2V3c0-1.105-0.895-2-2-2H5z"></path> <path fill="none" stroke="#666666" stroke-miterlimit="10" d="M19,23c1.105,0,2-0.895,2-2 v-2v-2c0,1.105-0.895,2-2,2H5c-1.105,0-2,0.895-2,2c0,1.105,0.895,2,2,2H19z"></path></g></svg>